<?xml version="1.0" encoding="utf-8"?>
<!-- Generator: Adobe Illustrator 27.2.0, SVG Export Plug-In . SVG Version: 6.00 Build 0)  -->
<svg version="1.1" id="Capa_1" xmlns="http://www.w3.org/2000/svg" xmlns:xlink="http://www.w3.org/1999/xlink" x="0px" y="0px"
	 viewBox="0 0 1080 1080" style="enable-background:new 0 0 1080 1080;" xml:space="preserve">
<style type="text/css">
	.st0{fill:#FFFFFF;}
</style>
<g>
	<image style="overflow:visible;" width="1152" height="1152" xlink:href="B08E7F7C.png"  transform="matrix(1 0 0 1 -36 -36)">
	</image>
</g>
<g>
	<g>
		<g>
			<path d="M282.9,802.6c-62.6,0-110.8-17.4-144.8-52.3c-34-34.9-50.9-83.7-50.9-146.6h83.4c0,40.1,10,71.3,29.9,93.4
				c19.9,22.2,48.1,33.3,84.4,33.3c35.3,0,62.5-11,81.6-33.1c19.1-22.1,28.7-53.3,28.7-93.6V225.2h83.4v378.6
				c0,63.1-17.2,112-51.7,146.8C392.3,785.3,344.4,802.6,282.9,802.6z M249.2,301.4v-76.2h186.9v76.2H249.2z"/>
			<path d="M585.2,794.6V225.2h80.2v569.5H585.2z M737.6,562l-61.8-235.8h-23.3V225.2h56.9l61.8,244.6h3.2l8,92.2H737.6z M760.9,562
				l12-92.2h4.8l61.8-244.6h56.9v101.1h-23.3L811.4,562H760.9z M883.6,794.6V225.2h80.2v569.5H883.6z"/>
		</g>
	</g>
	<g>
		<g>
			<path class="st0" d="M249.3,840.7c-62.6,0-110.8-17.4-144.8-52.3c-34-34.9-50.9-83.7-50.9-146.6H137c0,40.1,10,71.3,29.9,93.4
				c19.9,22.2,48.1,33.3,84.4,33.3c35.3,0,62.5-11,81.6-33.1c19.1-22.1,28.7-53.3,28.7-93.6V263.2H445v378.6
				c0,63.1-17.2,112-51.7,146.8C358.8,823.3,310.8,840.7,249.3,840.7z M215.6,339.4v-76.2h186.9v76.2H215.6z"/>
			<path class="st0" d="M551.7,832.7V263.2h80.2v569.5H551.7z M704.1,600.1l-61.8-235.8H619V263.2H676l61.8,244.6h3.2l8,92.2H704.1z
				 M727.3,600.1l12-92.2h4.8l61.8-244.6h56.9v101.1h-23.3l-61.8,235.8H727.3z M850,832.7V263.2h80.2v569.5H850z"/>
		</g>
	</g>
</g>
</svg>
