<?xml version="1.0" encoding="utf-8"?>
<!-- Generator: Adobe Illustrator 27.2.0, SVG Export Plug-In . SVG Version: 6.00 Build 0)  -->
<svg version="1.1" id="Capa_1" xmlns="http://www.w3.org/2000/svg" xmlns:xlink="http://www.w3.org/1999/xlink" x="0px" y="0px"
	 viewBox="0 0 565.2 565.2" style="enable-background:new 0 0 565.2 565.2;" xml:space="preserve">
<style type="text/css">
	.st0{fill:#FFFFFF;}
	.st1{fill:#FF9900;}
</style>
<g>
	<path class="st0" d="M162,237.4c0,6.8,0.7,12.3,2,16.4c1.5,4,3.3,8.5,5.9,13.2c0.9,1.5,1.3,2.9,1.3,4.2c0,1.8-1.1,3.7-3.5,5.5
		l-11.6,7.7c-1.7,1.1-3.3,1.7-4.8,1.7c-1.8,0-3.7-0.9-5.5-2.6c-2.5-2.7-4.7-5.6-6.6-8.6c-2-3.5-3.9-7.2-5.7-10.8
		c-14.3,16.9-32.3,25.4-54,25.4c-15.4,0-27.7-4.4-36.8-13.2c-9-8.8-13.6-20.6-13.6-35.3c0-15.6,5.5-28.3,16.7-37.9
		c11.2-9.6,26.1-14.3,45-14.3c6.2,0,12.7,0.5,19.5,1.5c6.8,0.9,13.8,2.4,21.2,4v-13.4c0-14-3-23.7-8.6-29.4
		c-5.9-5.7-15.8-8.5-30-8.5c-6.4,0-13,0.7-19.8,2.4c-6.8,1.6-13.4,3.7-19.8,6.3c-3,1.3-5.2,2-6.4,2.4c-1.3,0.4-2.2,0.5-2.9,0.5
		c-2.6,0-3.9-1.8-3.9-5.7v-9c0-3,0.4-5.2,1.3-6.4c0.9-1.3,2.6-2.6,5.2-3.9c6.4-3.3,14.2-6.1,23.2-8.3c9-2.4,18.6-3.5,28.7-3.5
		c21.9,0,37.9,5,48.2,14.9c10.1,9.9,15.2,25,15.2,45.2v59.5H162z M87.4,265.3c6.1,0,12.3-1.1,18.9-3.3c6.6-2.2,12.5-6.3,17.5-11.8
		c2.9-3.5,5.2-7.4,6.2-11.8c1.1-4.4,1.8-9.7,1.8-16v-7.7c-5.6-1.4-11.2-2.4-16.9-3.1c-5.7-0.7-11.5-1.1-17.3-1.1
		c-12.3,0-21.3,2.4-27.4,7.4c-6.1,5-9,11.9-9,21.1c0,8.6,2.2,15.1,6.8,19.5C72.5,263.1,79,265.3,87.4,265.3z M235,285.2
		c-3.3,0-5.5-0.5-7-1.8c-1.5-1.1-2.8-3.7-3.9-7.2L181,134.1c-1.1-3.7-1.7-6.1-1.7-7.4c0-2.9,1.5-4.6,4.4-4.6h18
		c3.5,0,5.9,0.5,7.2,1.8c1.5,1.1,2.6,3.7,3.7,7.2l30.9,121.7l28.7-121.7c0.9-3.7,2-6.1,3.5-7.2c1.5-1.1,4.1-1.8,7.4-1.8h14.7
		c3.5,0,5.9,0.5,7.4,1.8c1.5,1.1,2.8,3.7,3.5,7.2l29,123.2l31.8-123.2c1.1-3.7,2.4-6.1,3.7-7.2c1.5-1.1,3.9-1.8,7.2-1.8h17.1
		c3,0,4.6,1.5,4.6,4.6c0,0.9-0.2,1.8-0.4,3c-0.2,1.1-0.5,2.6-1.3,4.6L356,276.4c-1.1,3.7-2.4,6.1-3.9,7.2c-1.5,1.1-3.9,1.8-7,1.8
		h-15.8c-3.5,0-5.9-0.6-7.4-1.8c-1.5-1.3-2.8-3.7-3.5-7.4L290,157.6L261.7,276c-0.9,3.7-2,6.1-3.5,7.4c-1.5,1.3-4,1.8-7.4,1.8H235z
		 M471.2,290.1c-9.5,0-19.1-1.1-28.3-3.3c-9.2-2.2-16.4-4.6-21.1-7.4c-3-1.7-5-3.5-5.7-5.2c-0.7-1.6-1.1-3.4-1.1-5.2v-9.4
		c0-3.9,1.5-5.7,4.2-5.7c1.1,0,2.2,0.2,3.3,0.6c1.1,0.4,2.7,1.1,4.6,1.8c6.5,2.9,13.3,5,20.2,6.4c7.3,1.5,14.5,2.2,21.9,2.2
		c11.6,0,20.6-2,26.8-6.1c6.3-4,9.6-9.9,9.6-17.5c0-5.2-1.7-9.4-5-12.9c-3.3-3.5-9.6-6.6-18.6-9.6l-26.7-8.3
		c-13.4-4.2-23.3-10.5-29.4-18.7c-6.1-8.1-9.2-17.1-9.2-26.7c0-7.7,1.7-14.5,5-20.4c3.3-5.9,7.8-11.1,13.2-15.1
		c5.5-4.2,11.8-7.4,19.1-9.6c7.3-2.2,15.1-3.1,23.2-3.1c4,0,8.3,0.2,12.3,0.7c4.2,0.5,8.1,1.3,12,2c3.7,0.9,7.2,1.8,10.5,3
		c3.3,1.1,5.9,2.2,7.7,3.3c2.6,1.5,4.4,2.9,5.5,4.6c1.1,1.5,1.7,3.5,1.7,6.1v8.6c0,3.9-1.5,5.9-4.2,5.9c-1.5,0-3.9-0.7-7-2.2
		c-10.5-4.8-22.3-7.2-35.3-7.2c-10.5,0-18.7,1.7-24.4,5.2c-5.7,3.5-8.6,8.8-8.6,16.4c0,5.2,1.8,9.6,5.5,13c3.7,3.5,10.5,7,20.2,10.1
		l26.1,8.3c13.2,4.2,22.8,10.1,28.5,17.6c5.7,7.5,8.5,16.2,8.5,25.7c0,7.9-1.7,15.1-4.8,21.3c-3.3,6.3-7.7,11.8-13.4,16.2
		c-5.7,4.6-12.5,7.9-20.4,10.3C489.2,288.9,480.6,290.1,471.2,290.1z"/>
	<path class="st1" d="M518.3,323.4c-19.3,0.3-42.2,4.6-59.5,16.7c-5.3,3.9-4.4,9,1.5,8.3c19.7-2.4,63-7.5,70.8,2.4
		c7.7,9.7-8.6,50.7-16,68.9c-2.2,5.5,2.6,7.7,7.5,3.5c32.3-27.2,40.8-84,34.2-92.3C553.5,326.9,537.7,323.1,518.3,323.4z
		 M10.3,334.4c-4,0.5-5.9,5.4-1.6,9.3c72.1,65.1,167.5,104.2,273.3,104.2c75.5,0,163.4-23.7,223.9-68.4c9.9-7.4,1.3-18.6-8.8-14
		c-67.8,28.7-141.5,42.6-208.6,42.6c-99.4,0-195.6-27.4-273.5-72.6C13.3,334.5,11.7,334.2,10.3,334.4L10.3,334.4z"/>
</g>
</svg>
